<mxfile host="app.diagrams.net" modified="2021-03-22T18:54:09.901Z" agent="5.0 (Windows NT 10.0; Win64; x64) AppleWebKit/537.36 (KHTML, like Gecko) Chrome/89.0.4389.90 Safari/537.36" etag="9GAqzot6DkRJ-e7FIl0n" version="14.4.9" type="github">
  <diagram id="Nc_v12AOeJOrXmATifCL" name="Page-1">
    <mxGraphModel dx="1262" dy="762" grid="1" gridSize="10" guides="1" tooltips="1" connect="1" arrows="1" fold="1" page="1" pageScale="1" pageWidth="827" pageHeight="1169" background="#DAD2D8" math="0" shadow="0">
      <root>
        <mxCell id="0" />
        <mxCell id="1" parent="0" />
        <mxCell id="Uq6jBA9CxELSbBsubBTR-1" value="" style="rounded=1;whiteSpace=wrap;html=1;sketch=0;strokeColor=#6c8ebf;fillColor=#dae8fc;glass=0;shadow=0;" vertex="1" parent="1">
          <mxGeometry x="610" y="287" width="460" height="150" as="geometry" />
        </mxCell>
        <mxCell id="Uq6jBA9CxELSbBsubBTR-35" value="" style="endArrow=classic;html=1;strokeColor=#A8201A;entryX=0.5;entryY=1;entryDx=0;entryDy=0;" edge="1" parent="1" target="Uq6jBA9CxELSbBsubBTR-6">
          <mxGeometry width="50" height="50" relative="1" as="geometry">
            <mxPoint x="590" y="470" as="sourcePoint" />
            <mxPoint x="1210" y="460" as="targetPoint" />
            <Array as="points">
              <mxPoint x="580" y="470" />
              <mxPoint x="590" y="470" />
              <mxPoint x="945" y="470" />
            </Array>
          </mxGeometry>
        </mxCell>
        <mxCell id="Uq6jBA9CxELSbBsubBTR-36" value="&lt;font face=&quot;Lucida Console&quot; style=&quot;font-size: 14px&quot;&gt;PORT 80&lt;/font&gt;" style="edgeLabel;html=1;align=center;verticalAlign=middle;resizable=0;points=[];" vertex="1" connectable="0" parent="Uq6jBA9CxELSbBsubBTR-35">
          <mxGeometry x="-0.0441" relative="1" as="geometry">
            <mxPoint as="offset" />
          </mxGeometry>
        </mxCell>
        <mxCell id="Uq6jBA9CxELSbBsubBTR-23" value="" style="rounded=0;whiteSpace=wrap;html=1;shadow=0;glass=0;dashed=1;sketch=0;strokeColor=#336600;fillColor=none;gradientColor=#ffffff;fontColor=#143642;align=left;strokeWidth=2;dashPattern=1 4;" vertex="1" parent="1">
          <mxGeometry x="570" y="237" width="567" height="493" as="geometry" />
        </mxCell>
        <mxCell id="0ljy_1kGSOHufowf5Dnn-16" value="" style="rounded=0;whiteSpace=wrap;html=1;shadow=0;glass=0;dashed=1;sketch=0;strokeColor=#336600;fillColor=none;gradientColor=#ffffff;fontColor=#143642;align=left;strokeWidth=2;dashPattern=1 4;" parent="1" vertex="1">
          <mxGeometry x="1250" y="237" width="310" height="493" as="geometry" />
        </mxCell>
        <mxCell id="0ljy_1kGSOHufowf5Dnn-1" value="" style="rounded=1;whiteSpace=wrap;html=1;sketch=0;strokeColor=#6c8ebf;fillColor=#dae8fc;glass=0;shadow=0;" parent="1" vertex="1">
          <mxGeometry x="1270" y="287" width="270" height="150" as="geometry" />
        </mxCell>
        <mxCell id="0ljy_1kGSOHufowf5Dnn-4" value="" style="rounded=1;whiteSpace=wrap;html=1;sketch=0;strokeColor=#6c8ebf;fillColor=#dae8fc;glass=0;shadow=0;" parent="1" vertex="1">
          <mxGeometry x="1270" y="519" width="270" height="150" as="geometry" />
        </mxCell>
        <mxCell id="0ljy_1kGSOHufowf5Dnn-5" value="&lt;font face=&quot;Lucida Console&quot; style=&quot;font-size: 14px&quot;&gt;&lt;b&gt;us-east-1b&lt;/b&gt;&lt;/font&gt;" style="text;html=1;fillColor=none;align=center;verticalAlign=middle;whiteSpace=wrap;rounded=0;shadow=0;glass=0;sketch=0;fontColor=#143642;strokeColor=#336600;" parent="1" vertex="1">
          <mxGeometry x="1345" y="250" width="120" height="30" as="geometry" />
        </mxCell>
        <mxCell id="0ljy_1kGSOHufowf5Dnn-6" value="&lt;font face=&quot;Lucida Console&quot; style=&quot;font-size: 14px&quot;&gt;&lt;b&gt;us-east-1c&lt;/b&gt;&lt;/font&gt;" style="text;html=1;fillColor=none;align=center;verticalAlign=middle;whiteSpace=wrap;rounded=0;shadow=0;glass=0;sketch=0;fontColor=#143642;strokeColor=#336600;" parent="1" vertex="1">
          <mxGeometry x="1345" y="680" width="120" height="30" as="geometry" />
        </mxCell>
        <mxCell id="0ljy_1kGSOHufowf5Dnn-7" value="" style="rounded=0;whiteSpace=wrap;html=1;shadow=0;glass=0;sketch=0;gradientColor=#ffffff;fontColor=#143642;dashed=1;fillColor=none;strokeColor=#FF6666;" parent="1" vertex="1">
          <mxGeometry x="1290" y="307" width="230" height="110" as="geometry" />
        </mxCell>
        <mxCell id="0ljy_1kGSOHufowf5Dnn-8" value="" style="rounded=0;whiteSpace=wrap;html=1;shadow=0;glass=0;sketch=0;gradientColor=#ffffff;fontColor=#143642;dashed=1;fillColor=none;strokeColor=#FF6666;" parent="1" vertex="1">
          <mxGeometry x="1290" y="539" width="230" height="110" as="geometry" />
        </mxCell>
        <mxCell id="0ljy_1kGSOHufowf5Dnn-9" value="&lt;font face=&quot;Lucida Console&quot; size=&quot;1&quot;&gt;&lt;b style=&quot;font-size: 12px&quot;&gt;df-subnet-private-docdb-1b&lt;/b&gt;&lt;/font&gt;" style="text;html=1;fillColor=none;align=center;verticalAlign=middle;whiteSpace=wrap;rounded=0;shadow=0;glass=0;sketch=0;fontColor=#143642;strokeColor=#000000;dashed=1;dashPattern=1 2;" parent="1" vertex="1">
          <mxGeometry x="1322.5" y="320" width="170" height="40" as="geometry" />
        </mxCell>
        <mxCell id="0ljy_1kGSOHufowf5Dnn-10" value="&lt;font face=&quot;Lucida Console&quot; size=&quot;1&quot;&gt;&lt;b style=&quot;font-size: 12px&quot;&gt;df-subnet-private-docdb-1c&lt;/b&gt;&lt;/font&gt;" style="text;html=1;fillColor=none;align=center;verticalAlign=middle;whiteSpace=wrap;rounded=0;shadow=0;glass=0;sketch=0;fontColor=#143642;strokeColor=#000000;dashed=1;dashPattern=1 2;" parent="1" vertex="1">
          <mxGeometry x="1322.5" y="550" width="165" height="40" as="geometry" />
        </mxCell>
        <mxCell id="0ljy_1kGSOHufowf5Dnn-12" value="" style="points=[[0,0,0],[0.25,0,0],[0.5,0,0],[0.75,0,0],[1,0,0],[0,1,0],[0.25,1,0],[0.5,1,0],[0.75,1,0],[1,1,0],[0,0.25,0],[0,0.5,0],[0,0.75,0],[1,0.25,0],[1,0.5,0],[1,0.75,0]];outlineConnect=0;fontColor=#232F3E;gradientColor=#4D72F3;gradientDirection=north;fillColor=#3334B9;strokeColor=#ffffff;dashed=0;verticalLabelPosition=bottom;verticalAlign=top;align=center;html=1;fontSize=12;fontStyle=0;aspect=fixed;shape=mxgraph.aws4.resourceIcon;resIcon=mxgraph.aws4.documentdb_with_mongodb_compatibility;rounded=1;shadow=0;glass=0;dashPattern=1 2;sketch=0;direction=east;" parent="1" vertex="1">
          <mxGeometry x="1386" y="369" width="38" height="38" as="geometry" />
        </mxCell>
        <mxCell id="0ljy_1kGSOHufowf5Dnn-13" value="" style="points=[[0,0,0],[0.25,0,0],[0.5,0,0],[0.75,0,0],[1,0,0],[0,1,0],[0.25,1,0],[0.5,1,0],[0.75,1,0],[1,1,0],[0,0.25,0],[0,0.5,0],[0,0.75,0],[1,0.25,0],[1,0.5,0],[1,0.75,0]];outlineConnect=0;fontColor=#232F3E;gradientColor=#4D72F3;gradientDirection=north;fillColor=#3334B9;strokeColor=#ffffff;dashed=0;verticalLabelPosition=bottom;verticalAlign=top;align=center;html=1;fontSize=12;fontStyle=0;aspect=fixed;shape=mxgraph.aws4.resourceIcon;resIcon=mxgraph.aws4.documentdb_with_mongodb_compatibility;rounded=1;shadow=0;glass=0;dashPattern=1 2;sketch=0;" parent="1" vertex="1">
          <mxGeometry x="1386" y="600" width="38" height="38" as="geometry" />
        </mxCell>
        <mxCell id="0ljy_1kGSOHufowf5Dnn-14" value="&lt;font face=&quot;Lucida Console&quot;&gt;primary&lt;/font&gt;" style="text;html=1;strokeColor=none;fillColor=none;align=center;verticalAlign=middle;whiteSpace=wrap;rounded=0;shadow=0;glass=0;dashed=1;dashPattern=1 2;sketch=0;fontColor=#143642;" parent="1" vertex="1">
          <mxGeometry x="1447.5" y="378" width="40" height="20" as="geometry" />
        </mxCell>
        <mxCell id="0ljy_1kGSOHufowf5Dnn-15" value="&lt;font face=&quot;Lucida Console&quot;&gt;read-replica&lt;/font&gt;" style="text;html=1;strokeColor=none;fillColor=none;align=left;verticalAlign=middle;whiteSpace=wrap;rounded=0;shadow=0;glass=0;dashed=1;dashPattern=1 2;sketch=0;fontColor=#143642;" parent="1" vertex="1">
          <mxGeometry x="1440" y="609" width="40" height="20" as="geometry" />
        </mxCell>
        <mxCell id="0ljy_1kGSOHufowf5Dnn-18" value="&lt;font face=&quot;Lucida Console&quot; style=&quot;font-size: 14px&quot;&gt;&lt;b&gt;TCP PORT 27017&lt;br&gt;&lt;/b&gt;&lt;/font&gt;" style="rounded=1;whiteSpace=wrap;html=1;shadow=0;glass=0;dashed=1;sketch=0;strokeWidth=2;fillColor=none;gradientColor=#ffffff;fontColor=#143642;align=left;strokeColor=#FF6666;" parent="1" vertex="1">
          <mxGeometry x="1171" y="450" width="139" height="20" as="geometry" />
        </mxCell>
        <mxCell id="0ljy_1kGSOHufowf5Dnn-19" value="&lt;h1 style=&quot;text-align: justify ; font-size: 18px&quot;&gt;&lt;font face=&quot;Lucida Console&quot; style=&quot;font-size: 18px&quot;&gt;AWS DocumentDB&lt;/font&gt;&lt;/h1&gt;&lt;p style=&quot;text-align: justify ; font-size: 18px&quot;&gt;&lt;br&gt;&lt;/p&gt;" style="text;html=1;strokeColor=#d79b00;spacing=5;spacingTop=-20;whiteSpace=wrap;overflow=hidden;rounded=0;shadow=0;glass=0;dashed=1;sketch=0;align=center;verticalAlign=top;fillColor=#ffe6cc;labelPosition=center;verticalLabelPosition=middle;" parent="1" vertex="1">
          <mxGeometry x="1320" y="190" width="170" height="30" as="geometry" />
        </mxCell>
        <mxCell id="0ljy_1kGSOHufowf5Dnn-21" value="" style="outlineConnect=0;fontColor=#232F3E;gradientColor=none;fillColor=#D86613;strokeColor=none;dashed=0;verticalLabelPosition=bottom;verticalAlign=top;align=center;html=1;fontSize=12;fontStyle=0;aspect=fixed;pointerEvents=1;shape=mxgraph.aws4.instance2;rounded=1;shadow=0;glass=0;sketch=0;" parent="1" vertex="1">
          <mxGeometry x="1200" y="794" width="60" height="60" as="geometry" />
        </mxCell>
        <mxCell id="0ljy_1kGSOHufowf5Dnn-22" value="&lt;font face=&quot;Lucida Console&quot; style=&quot;font-size: 14px&quot;&gt;Bastion Host&lt;/font&gt;" style="text;html=1;strokeColor=none;fillColor=none;align=center;verticalAlign=middle;whiteSpace=wrap;rounded=0;shadow=0;glass=0;dashed=1;sketch=0;fontColor=#143642;" parent="1" vertex="1">
          <mxGeometry x="1165" y="870" width="130" height="20" as="geometry" />
        </mxCell>
        <mxCell id="0ljy_1kGSOHufowf5Dnn-23" value="" style="endArrow=classic;html=1;strokeColor=#A8201A;fillColor=#FAE5C7;fontColor=#143642;" parent="1" target="0ljy_1kGSOHufowf5Dnn-21" edge="1">
          <mxGeometry width="50" height="50" relative="1" as="geometry">
            <mxPoint x="1230" y="500" as="sourcePoint" />
            <mxPoint x="1220" y="740" as="targetPoint" />
            <Array as="points">
              <mxPoint x="1230" y="610" />
            </Array>
          </mxGeometry>
        </mxCell>
        <mxCell id="0ljy_1kGSOHufowf5Dnn-24" value="" style="aspect=fixed;html=1;points=[];align=center;image;fontSize=12;image=img/lib/azure2/preview/Azure_Cloud_Shell.svg;rounded=1;shadow=0;glass=0;dashed=1;sketch=0;strokeColor=#FF6666;strokeWidth=2;fillColor=#ffffff;gradientColor=#ffffff;" parent="1" vertex="1">
          <mxGeometry x="1452" y="800" width="68" height="48" as="geometry" />
        </mxCell>
        <mxCell id="0ljy_1kGSOHufowf5Dnn-25" value="" style="endArrow=classic;html=1;strokeColor=#A8201A;fillColor=#FAE5C7;fontColor=#143642;entryX=0;entryY=0.5;entryDx=0;entryDy=0;entryPerimeter=0;" parent="1" source="0ljy_1kGSOHufowf5Dnn-21" target="0ljy_1kGSOHufowf5Dnn-24" edge="1">
          <mxGeometry width="50" height="50" relative="1" as="geometry">
            <mxPoint x="1270" y="824" as="sourcePoint" />
            <mxPoint x="910" y="750" as="targetPoint" />
          </mxGeometry>
        </mxCell>
        <mxCell id="0ljy_1kGSOHufowf5Dnn-26" value="&lt;font face=&quot;Lucida Console&quot; style=&quot;font-size: 14px&quot;&gt;Mongo Shell&lt;/font&gt;" style="text;html=1;strokeColor=none;fillColor=none;align=center;verticalAlign=middle;whiteSpace=wrap;rounded=0;shadow=0;glass=0;dashed=1;sketch=0;fontColor=#143642;" parent="1" vertex="1">
          <mxGeometry x="1421" y="870" width="130" height="20" as="geometry" />
        </mxCell>
        <mxCell id="Uq6jBA9CxELSbBsubBTR-6" value="" style="rounded=0;whiteSpace=wrap;html=1;shadow=0;glass=0;sketch=0;gradientColor=#ffffff;fontColor=#143642;dashed=1;fillColor=none;strokeColor=#FF6666;" vertex="1" parent="1">
          <mxGeometry x="850" y="307" width="190" height="110" as="geometry" />
        </mxCell>
        <mxCell id="Uq6jBA9CxELSbBsubBTR-7" value="" style="rounded=0;whiteSpace=wrap;html=1;shadow=0;glass=0;sketch=0;gradientColor=#ffffff;fontColor=#143642;dashed=1;fillColor=none;strokeColor=#FF6666;" vertex="1" parent="1">
          <mxGeometry x="637" y="307" width="190" height="110" as="geometry" />
        </mxCell>
        <mxCell id="Uq6jBA9CxELSbBsubBTR-8" value="&lt;font face=&quot;Lucida Console&quot; style=&quot;font-size: 14px&quot;&gt;&lt;b&gt;us-east-1d&lt;/b&gt;&lt;/font&gt;" style="text;html=1;fillColor=none;align=center;verticalAlign=middle;whiteSpace=wrap;rounded=0;shadow=0;glass=0;sketch=0;fontColor=#143642;strokeColor=#336600;" vertex="1" parent="1">
          <mxGeometry x="780" y="250" width="120" height="30" as="geometry" />
        </mxCell>
        <mxCell id="Uq6jBA9CxELSbBsubBTR-9" value="&lt;font face=&quot;Lucida Console&quot; size=&quot;1&quot;&gt;&lt;b style=&quot;font-size: 12px&quot;&gt;df-subnet-private-eb-1d&lt;/b&gt;&lt;/font&gt;" style="text;html=1;fillColor=none;align=center;verticalAlign=middle;whiteSpace=wrap;rounded=0;shadow=0;glass=0;sketch=0;fontColor=#143642;strokeColor=#000000;dashed=1;dashPattern=1 2;" vertex="1" parent="1">
          <mxGeometry x="880" y="325" width="130" height="30" as="geometry" />
        </mxCell>
        <mxCell id="Uq6jBA9CxELSbBsubBTR-10" value="&lt;font face=&quot;Lucida Console&quot; size=&quot;1&quot;&gt;&lt;b style=&quot;font-size: 12px&quot;&gt;public subnet&lt;/b&gt;&lt;/font&gt;" style="text;html=1;fillColor=none;align=center;verticalAlign=middle;whiteSpace=wrap;rounded=0;shadow=0;glass=0;sketch=0;fontColor=#143642;strokeColor=#000000;dashed=1;dashPattern=1 2;" vertex="1" parent="1">
          <mxGeometry x="655.5" y="325" width="153" height="30" as="geometry" />
        </mxCell>
        <mxCell id="Uq6jBA9CxELSbBsubBTR-11" value="" style="outlineConnect=0;fontColor=#232F3E;gradientColor=none;fillColor=#D86613;strokeColor=none;dashed=0;verticalLabelPosition=bottom;verticalAlign=top;align=center;html=1;fontSize=12;fontStyle=0;aspect=fixed;pointerEvents=1;shape=mxgraph.aws4.instance2;rounded=1;shadow=0;glass=0;sketch=0;" vertex="1" parent="1">
          <mxGeometry x="921.5" y="364.5" width="47" height="47" as="geometry" />
        </mxCell>
        <mxCell id="Uq6jBA9CxELSbBsubBTR-12" value="" style="rounded=1;whiteSpace=wrap;html=1;sketch=0;strokeColor=#6c8ebf;fillColor=#dae8fc;glass=0;shadow=0;" vertex="1" parent="1">
          <mxGeometry x="610" y="519" width="460" height="150" as="geometry" />
        </mxCell>
        <mxCell id="Uq6jBA9CxELSbBsubBTR-13" value="&lt;font face=&quot;Lucida Console&quot; style=&quot;font-size: 14px&quot;&gt;&lt;b&gt;us-east-1f&lt;/b&gt;&lt;/font&gt;" style="text;html=1;fillColor=none;align=center;verticalAlign=middle;whiteSpace=wrap;rounded=0;shadow=0;glass=0;sketch=0;fontColor=#143642;strokeColor=#336600;" vertex="1" parent="1">
          <mxGeometry x="780" y="680" width="120" height="30" as="geometry" />
        </mxCell>
        <mxCell id="Uq6jBA9CxELSbBsubBTR-14" value="" style="rounded=0;whiteSpace=wrap;html=1;shadow=0;glass=0;sketch=0;gradientColor=#ffffff;fontColor=#143642;dashed=1;fillColor=none;strokeColor=#FF6666;" vertex="1" parent="1">
          <mxGeometry x="850" y="539" width="190" height="110" as="geometry" />
        </mxCell>
        <mxCell id="Uq6jBA9CxELSbBsubBTR-15" value="" style="rounded=0;whiteSpace=wrap;html=1;shadow=0;glass=0;sketch=0;gradientColor=#ffffff;fontColor=#143642;dashed=1;fillColor=none;strokeColor=#FF6666;" vertex="1" parent="1">
          <mxGeometry x="637" y="539" width="190" height="110" as="geometry" />
        </mxCell>
        <mxCell id="Uq6jBA9CxELSbBsubBTR-16" value="&lt;font face=&quot;Lucida Console&quot; size=&quot;1&quot;&gt;&lt;b style=&quot;font-size: 12px&quot;&gt;df-subnet-private-eb-1f&lt;/b&gt;&lt;/font&gt;" style="text;html=1;fillColor=none;align=center;verticalAlign=middle;whiteSpace=wrap;rounded=0;shadow=0;glass=0;sketch=0;fontColor=#143642;strokeColor=#000000;dashed=1;dashPattern=1 2;" vertex="1" parent="1">
          <mxGeometry x="880" y="550" width="130" height="30" as="geometry" />
        </mxCell>
        <mxCell id="Uq6jBA9CxELSbBsubBTR-17" value="" style="outlineConnect=0;fontColor=#232F3E;gradientColor=none;fillColor=#D86613;strokeColor=none;dashed=0;verticalLabelPosition=bottom;verticalAlign=top;align=center;html=1;fontSize=12;fontStyle=0;aspect=fixed;pointerEvents=1;shape=mxgraph.aws4.instance2;rounded=1;shadow=0;glass=0;sketch=0;" vertex="1" parent="1">
          <mxGeometry x="921.5" y="595.5" width="47" height="47" as="geometry" />
        </mxCell>
        <mxCell id="Uq6jBA9CxELSbBsubBTR-20" value="&lt;font face=&quot;Lucida Console&quot; size=&quot;1&quot;&gt;&lt;b style=&quot;font-size: 12px&quot;&gt;public subnet&lt;/b&gt;&lt;/font&gt;" style="text;html=1;fillColor=none;align=center;verticalAlign=middle;whiteSpace=wrap;rounded=0;shadow=0;glass=0;sketch=0;fontColor=#143642;strokeColor=#000000;dashed=1;dashPattern=1 2;" vertex="1" parent="1">
          <mxGeometry x="655.5" y="550" width="153" height="30" as="geometry" />
        </mxCell>
        <mxCell id="Uq6jBA9CxELSbBsubBTR-21" value="" style="outlineConnect=0;dashed=0;verticalLabelPosition=bottom;verticalAlign=top;align=center;html=1;shape=mxgraph.aws3.vpc_nat_gateway;fillColor=#F58534;gradientColor=none;" vertex="1" parent="1">
          <mxGeometry x="712" y="367" width="40" height="40" as="geometry" />
        </mxCell>
        <mxCell id="Uq6jBA9CxELSbBsubBTR-22" value="" style="outlineConnect=0;dashed=0;verticalLabelPosition=bottom;verticalAlign=top;align=center;html=1;shape=mxgraph.aws3.vpc_nat_gateway;fillColor=#F58534;gradientColor=none;" vertex="1" parent="1">
          <mxGeometry x="712" y="598" width="40" height="40" as="geometry" />
        </mxCell>
        <mxCell id="Uq6jBA9CxELSbBsubBTR-25" value="" style="endArrow=classic;html=1;strokeColor=#A8201A;" edge="1" parent="1">
          <mxGeometry width="50" height="50" relative="1" as="geometry">
            <mxPoint x="1040" y="370" as="sourcePoint" />
            <mxPoint x="1200" y="450" as="targetPoint" />
            <Array as="points">
              <mxPoint x="1040" y="370" />
              <mxPoint x="1200" y="370" />
            </Array>
          </mxGeometry>
        </mxCell>
        <mxCell id="Uq6jBA9CxELSbBsubBTR-27" value="" style="endArrow=classic;html=1;entryX=0.349;entryY=-0.029;entryDx=0;entryDy=0;entryPerimeter=0;strokeColor=#A8201A;" edge="1" parent="1">
          <mxGeometry width="50" height="50" relative="1" as="geometry">
            <mxPoint x="1040" y="600" as="sourcePoint" />
            <mxPoint x="1199.8600000000001" y="470" as="targetPoint" />
            <Array as="points">
              <mxPoint x="1200" y="600" />
            </Array>
          </mxGeometry>
        </mxCell>
        <mxCell id="Uq6jBA9CxELSbBsubBTR-28" value="&lt;font face=&quot;Lucida Console&quot; style=&quot;font-size: 14px&quot;&gt;&lt;b&gt;TCP PORT 22&lt;br&gt;&lt;/b&gt;&lt;/font&gt;" style="rounded=1;whiteSpace=wrap;html=1;shadow=0;glass=0;dashed=1;sketch=0;strokeWidth=2;fillColor=none;gradientColor=#ffffff;fontColor=#143642;align=left;strokeColor=#FF6666;" vertex="1" parent="1">
          <mxGeometry x="1210" y="480" width="139" height="20" as="geometry" />
        </mxCell>
        <mxCell id="Uq6jBA9CxELSbBsubBTR-30" value="" style="outlineConnect=0;dashed=0;verticalLabelPosition=bottom;verticalAlign=top;align=center;html=1;shape=mxgraph.aws3.application_load_balancer;fillColor=#F58534;gradientColor=none;" vertex="1" parent="1">
          <mxGeometry x="540" y="457.25" width="50" height="52.5" as="geometry" />
        </mxCell>
        <mxCell id="Uq6jBA9CxELSbBsubBTR-31" value="&lt;font face=&quot;Lucida Console&quot;&gt;Apollo API&lt;/font&gt;" style="text;html=1;strokeColor=none;fillColor=none;align=left;verticalAlign=middle;whiteSpace=wrap;rounded=0;shadow=0;glass=0;dashed=1;dashPattern=1 2;sketch=0;fontColor=#143642;" vertex="1" parent="1">
          <mxGeometry x="980" y="378" width="40" height="20" as="geometry" />
        </mxCell>
        <mxCell id="Uq6jBA9CxELSbBsubBTR-32" value="&lt;font face=&quot;Lucida Console&quot;&gt;Apollo API&lt;/font&gt;" style="text;html=1;strokeColor=none;fillColor=none;align=left;verticalAlign=middle;whiteSpace=wrap;rounded=0;shadow=0;glass=0;dashed=1;dashPattern=1 2;sketch=0;fontColor=#143642;" vertex="1" parent="1">
          <mxGeometry x="980" y="608" width="40" height="20" as="geometry" />
        </mxCell>
        <mxCell id="Uq6jBA9CxELSbBsubBTR-33" value="&lt;font face=&quot;Lucida Console&quot;&gt;NAT Gateway&lt;/font&gt;" style="text;html=1;strokeColor=none;fillColor=none;align=left;verticalAlign=middle;whiteSpace=wrap;rounded=0;shadow=0;glass=0;dashed=1;dashPattern=1 2;sketch=0;fontColor=#143642;" vertex="1" parent="1">
          <mxGeometry x="760" y="378" width="40" height="20" as="geometry" />
        </mxCell>
        <mxCell id="Uq6jBA9CxELSbBsubBTR-34" value="&lt;font face=&quot;Lucida Console&quot;&gt;NAT Gateway&lt;/font&gt;" style="text;html=1;strokeColor=none;fillColor=none;align=left;verticalAlign=middle;whiteSpace=wrap;rounded=0;shadow=0;glass=0;dashed=1;dashPattern=1 2;sketch=0;fontColor=#143642;" vertex="1" parent="1">
          <mxGeometry x="760" y="609" width="40" height="20" as="geometry" />
        </mxCell>
        <mxCell id="Uq6jBA9CxELSbBsubBTR-37" value="" style="endArrow=classic;html=1;strokeColor=#A8201A;" edge="1" parent="1">
          <mxGeometry width="50" height="50" relative="1" as="geometry">
            <mxPoint x="590" y="500" as="sourcePoint" />
            <mxPoint x="945" y="540" as="targetPoint" />
            <Array as="points">
              <mxPoint x="580" y="500" />
              <mxPoint x="590" y="500" />
              <mxPoint x="945" y="500" />
            </Array>
          </mxGeometry>
        </mxCell>
        <mxCell id="Uq6jBA9CxELSbBsubBTR-38" value="&lt;font face=&quot;Lucida Console&quot; style=&quot;font-size: 14px&quot;&gt;PORT 80&lt;/font&gt;" style="edgeLabel;html=1;align=center;verticalAlign=middle;resizable=0;points=[];" vertex="1" connectable="0" parent="Uq6jBA9CxELSbBsubBTR-37">
          <mxGeometry x="-0.0441" relative="1" as="geometry">
            <mxPoint as="offset" />
          </mxGeometry>
        </mxCell>
        <mxCell id="Uq6jBA9CxELSbBsubBTR-39" value="&lt;font face=&quot;Lucida Console&quot;&gt;Public ALB&lt;/font&gt;" style="text;html=1;strokeColor=none;fillColor=none;align=left;verticalAlign=middle;whiteSpace=wrap;rounded=0;shadow=0;glass=0;dashed=1;dashPattern=1 2;sketch=0;fontColor=#143642;" vertex="1" parent="1">
          <mxGeometry x="500" y="519" width="40" height="20" as="geometry" />
        </mxCell>
        <mxCell id="Uq6jBA9CxELSbBsubBTR-40" value="" style="endArrow=classic;html=1;strokeColor=#A8201A;exitX=0;exitY=0.75;exitDx=0;exitDy=0;entryX=1;entryY=0.75;entryDx=0;entryDy=0;" edge="1" parent="1" source="Uq6jBA9CxELSbBsubBTR-6" target="Uq6jBA9CxELSbBsubBTR-7">
          <mxGeometry width="50" height="50" relative="1" as="geometry">
            <mxPoint x="730" y="410" as="sourcePoint" />
            <mxPoint x="780" y="360" as="targetPoint" />
          </mxGeometry>
        </mxCell>
        <mxCell id="Uq6jBA9CxELSbBsubBTR-46" value="" style="endArrow=classic;html=1;strokeColor=#A8201A;entryX=1;entryY=0.75;entryDx=0;entryDy=0;" edge="1" parent="1" target="Uq6jBA9CxELSbBsubBTR-15">
          <mxGeometry width="50" height="50" relative="1" as="geometry">
            <mxPoint x="850" y="622" as="sourcePoint" />
            <mxPoint x="780" y="360" as="targetPoint" />
          </mxGeometry>
        </mxCell>
        <mxCell id="Uq6jBA9CxELSbBsubBTR-47" value="" style="outlineConnect=0;dashed=0;verticalLabelPosition=bottom;verticalAlign=top;align=center;html=1;shape=mxgraph.aws3.internet_gateway;fillColor=#F58534;gradientColor=none;" vertex="1" parent="1">
          <mxGeometry x="431" y="237" width="49" height="53" as="geometry" />
        </mxCell>
        <mxCell id="Uq6jBA9CxELSbBsubBTR-48" value="&lt;font face=&quot;Lucida Console&quot;&gt;Internet Gateway&lt;/font&gt;" style="text;html=1;strokeColor=none;fillColor=none;align=left;verticalAlign=middle;whiteSpace=wrap;rounded=0;shadow=0;glass=0;dashed=1;dashPattern=1 2;sketch=0;fontColor=#143642;" vertex="1" parent="1">
          <mxGeometry x="360" y="243.5" width="60" height="40" as="geometry" />
        </mxCell>
        <mxCell id="Uq6jBA9CxELSbBsubBTR-50" value="" style="endArrow=classic;html=1;strokeColor=#A8201A;exitX=0;exitY=0.75;exitDx=0;exitDy=0;" edge="1" parent="1" source="Uq6jBA9CxELSbBsubBTR-7" target="Uq6jBA9CxELSbBsubBTR-47">
          <mxGeometry width="50" height="50" relative="1" as="geometry">
            <mxPoint x="620" y="510" as="sourcePoint" />
            <mxPoint x="670" y="460" as="targetPoint" />
            <Array as="points">
              <mxPoint x="456" y="390" />
            </Array>
          </mxGeometry>
        </mxCell>
        <mxCell id="Uq6jBA9CxELSbBsubBTR-51" value="" style="endArrow=classic;html=1;strokeColor=#A8201A;exitX=0;exitY=0.75;exitDx=0;exitDy=0;entryX=0.5;entryY=1;entryDx=0;entryDy=0;entryPerimeter=0;" edge="1" parent="1" source="Uq6jBA9CxELSbBsubBTR-15" target="Uq6jBA9CxELSbBsubBTR-47">
          <mxGeometry width="50" height="50" relative="1" as="geometry">
            <mxPoint x="620" y="510" as="sourcePoint" />
            <mxPoint x="450" y="300" as="targetPoint" />
            <Array as="points">
              <mxPoint x="456" y="622" />
            </Array>
          </mxGeometry>
        </mxCell>
        <mxCell id="Uq6jBA9CxELSbBsubBTR-52" value="" style="aspect=fixed;html=1;points=[];align=center;image;fontSize=12;image=img/lib/mscae/SendGrid_Accounts.svg;" vertex="1" parent="1">
          <mxGeometry x="440" y="50" width="40" height="40" as="geometry" />
        </mxCell>
        <mxCell id="Uq6jBA9CxELSbBsubBTR-53" value="&lt;font face=&quot;Lucida Console&quot;&gt;SendGrid API&lt;/font&gt;" style="text;html=1;strokeColor=none;fillColor=none;align=left;verticalAlign=middle;whiteSpace=wrap;rounded=0;shadow=0;glass=0;dashed=1;dashPattern=1 2;sketch=0;fontColor=#143642;" vertex="1" parent="1">
          <mxGeometry x="360" y="50" width="60" height="40" as="geometry" />
        </mxCell>
        <mxCell id="Uq6jBA9CxELSbBsubBTR-54" value="" style="endArrow=classic;html=1;strokeColor=#A8201A;entryX=0.413;entryY=1.025;entryDx=0;entryDy=0;entryPerimeter=0;exitX=0.5;exitY=0;exitDx=0;exitDy=0;exitPerimeter=0;" edge="1" parent="1" source="Uq6jBA9CxELSbBsubBTR-47" target="Uq6jBA9CxELSbBsubBTR-52">
          <mxGeometry width="50" height="50" relative="1" as="geometry">
            <mxPoint x="452" y="237" as="sourcePoint" />
            <mxPoint x="670" y="260" as="targetPoint" />
          </mxGeometry>
        </mxCell>
        <mxCell id="Uq6jBA9CxELSbBsubBTR-55" value="Security Groups" style="shape=table;html=1;whiteSpace=wrap;startSize=40;container=1;collapsible=0;childLayout=tableLayout;fontStyle=1;align=center;fontFamily=Lucida Console;fontSize=14;" vertex="1" parent="1">
          <mxGeometry x="560" y="800" width="530" height="240.00000000000023" as="geometry" />
        </mxCell>
        <mxCell id="Uq6jBA9CxELSbBsubBTR-56" value="" style="shape=partialRectangle;html=1;whiteSpace=wrap;collapsible=0;dropTarget=0;pointerEvents=0;fillColor=none;top=0;left=0;bottom=0;right=0;points=[[0,0.5],[1,0.5]];portConstraint=eastwest;" vertex="1" parent="Uq6jBA9CxELSbBsubBTR-55">
          <mxGeometry y="40" width="530" height="30" as="geometry" />
        </mxCell>
        <mxCell id="Uq6jBA9CxELSbBsubBTR-57" value="" style="shape=partialRectangle;html=1;whiteSpace=wrap;connectable=0;fillColor=none;top=0;left=0;bottom=0;right=0;overflow=hidden;fontFamily=Lucida Console;fontSize=13;" vertex="1" parent="Uq6jBA9CxELSbBsubBTR-56">
          <mxGeometry width="177" height="30" as="geometry" />
        </mxCell>
        <mxCell id="Uq6jBA9CxELSbBsubBTR-58" value="Inbound" style="shape=partialRectangle;html=1;whiteSpace=wrap;connectable=0;fillColor=none;top=0;left=0;bottom=0;right=0;overflow=hidden;fontFamily=Lucida Console;fontSize=13;" vertex="1" parent="Uq6jBA9CxELSbBsubBTR-56">
          <mxGeometry x="177" width="176" height="30" as="geometry" />
        </mxCell>
        <mxCell id="Uq6jBA9CxELSbBsubBTR-59" value="Outbound" style="shape=partialRectangle;html=1;whiteSpace=wrap;connectable=0;fillColor=none;top=0;left=0;bottom=0;right=0;overflow=hidden;fontFamily=Lucida Console;fontSize=13;" vertex="1" parent="Uq6jBA9CxELSbBsubBTR-56">
          <mxGeometry x="353" width="177" height="30" as="geometry" />
        </mxCell>
        <mxCell id="Uq6jBA9CxELSbBsubBTR-60" value="" style="shape=partialRectangle;html=1;whiteSpace=wrap;collapsible=0;dropTarget=0;pointerEvents=0;fillColor=none;top=0;left=0;bottom=0;right=0;points=[[0,0.5],[1,0.5]];portConstraint=eastwest;" vertex="1" parent="Uq6jBA9CxELSbBsubBTR-55">
          <mxGeometry y="70" width="530" height="40" as="geometry" />
        </mxCell>
        <mxCell id="Uq6jBA9CxELSbBsubBTR-61" value="Public ALB&lt;br style=&quot;font-size: 12px;&quot;&gt;(df-public-alb)" style="shape=partialRectangle;html=1;whiteSpace=wrap;connectable=0;fillColor=none;top=0;left=0;bottom=0;right=0;overflow=hidden;fontFamily=Lucida Console;fontSize=12;" vertex="1" parent="Uq6jBA9CxELSbBsubBTR-60">
          <mxGeometry width="177" height="40" as="geometry" />
        </mxCell>
        <mxCell id="Uq6jBA9CxELSbBsubBTR-62" value="HTTP PORT 80&lt;br style=&quot;font-size: 12px&quot;&gt;0.0.0.0/0" style="shape=partialRectangle;html=1;whiteSpace=wrap;connectable=0;fillColor=none;top=0;left=0;bottom=0;right=0;overflow=hidden;fontFamily=Lucida Console;fontSize=12;" vertex="1" parent="Uq6jBA9CxELSbBsubBTR-60">
          <mxGeometry x="177" width="176" height="40" as="geometry" />
        </mxCell>
        <mxCell id="Uq6jBA9CxELSbBsubBTR-63" value="HTTP PORT 80&lt;br style=&quot;font-size: 12px;&quot;&gt;df-ec2-alb" style="shape=partialRectangle;html=1;whiteSpace=wrap;connectable=0;fillColor=none;top=0;left=0;bottom=0;right=0;overflow=hidden;fontFamily=Lucida Console;fontSize=12;" vertex="1" parent="Uq6jBA9CxELSbBsubBTR-60">
          <mxGeometry x="353" width="177" height="40" as="geometry" />
        </mxCell>
        <mxCell id="Uq6jBA9CxELSbBsubBTR-64" value="" style="shape=partialRectangle;html=1;whiteSpace=wrap;collapsible=0;dropTarget=0;pointerEvents=0;fillColor=none;top=0;left=0;bottom=0;right=0;points=[[0,0.5],[1,0.5]];portConstraint=eastwest;" vertex="1" parent="Uq6jBA9CxELSbBsubBTR-55">
          <mxGeometry y="110" width="530" height="40" as="geometry" />
        </mxCell>
        <mxCell id="Uq6jBA9CxELSbBsubBTR-65" value="EC2 (Apollo API)&lt;br&gt;(df-ec2-alb)" style="shape=partialRectangle;html=1;whiteSpace=wrap;connectable=0;fillColor=none;top=0;left=0;bottom=0;right=0;overflow=hidden;fontFamily=Lucida Console;" vertex="1" parent="Uq6jBA9CxELSbBsubBTR-64">
          <mxGeometry width="177" height="40" as="geometry" />
        </mxCell>
        <mxCell id="Uq6jBA9CxELSbBsubBTR-66" value="&lt;font style=&quot;font-size: 12px&quot;&gt;HTTP PORT 80&lt;br&gt;df-public-alb&lt;/font&gt;" style="shape=partialRectangle;html=1;whiteSpace=wrap;connectable=0;fillColor=none;top=0;left=0;bottom=0;right=0;overflow=hidden;fontFamily=Lucida Console;fontSize=13;" vertex="1" parent="Uq6jBA9CxELSbBsubBTR-64">
          <mxGeometry x="177" width="176" height="40" as="geometry" />
        </mxCell>
        <mxCell id="Uq6jBA9CxELSbBsubBTR-67" value="&lt;font style=&quot;font-size: 12px&quot;&gt;ALL TRAFFIC&lt;br&gt;0.0.0.0/0&lt;/font&gt;" style="shape=partialRectangle;html=1;whiteSpace=wrap;connectable=0;fillColor=none;top=0;left=0;bottom=0;right=0;overflow=hidden;fontFamily=Lucida Console;fontSize=13;" vertex="1" parent="Uq6jBA9CxELSbBsubBTR-64">
          <mxGeometry x="353" width="177" height="40" as="geometry" />
        </mxCell>
        <mxCell id="Uq6jBA9CxELSbBsubBTR-68" style="shape=partialRectangle;html=1;whiteSpace=wrap;collapsible=0;dropTarget=0;pointerEvents=0;fillColor=none;top=0;left=0;bottom=0;right=0;points=[[0,0.5],[1,0.5]];portConstraint=eastwest;" vertex="1" parent="Uq6jBA9CxELSbBsubBTR-55">
          <mxGeometry y="150" width="530" height="40" as="geometry" />
        </mxCell>
        <mxCell id="Uq6jBA9CxELSbBsubBTR-69" value="&lt;span&gt;EC2 (Apollo API)&lt;/span&gt;&lt;br&gt;&lt;span&gt;(df-ec2-docdb)&lt;/span&gt;" style="shape=partialRectangle;html=1;whiteSpace=wrap;connectable=0;fillColor=none;top=0;left=0;bottom=0;right=0;overflow=hidden;fontFamily=Lucida Console;" vertex="1" parent="Uq6jBA9CxELSbBsubBTR-68">
          <mxGeometry width="177" height="40" as="geometry" />
        </mxCell>
        <mxCell id="Uq6jBA9CxELSbBsubBTR-70" value="-" style="shape=partialRectangle;html=1;whiteSpace=wrap;connectable=0;fillColor=none;top=0;left=0;bottom=0;right=0;overflow=hidden;fontFamily=Lucida Console;fontSize=13;" vertex="1" parent="Uq6jBA9CxELSbBsubBTR-68">
          <mxGeometry x="177" width="176" height="40" as="geometry" />
        </mxCell>
        <mxCell id="Uq6jBA9CxELSbBsubBTR-71" value="-" style="shape=partialRectangle;html=1;whiteSpace=wrap;connectable=0;fillColor=none;top=0;left=0;bottom=0;right=0;overflow=hidden;fontFamily=Lucida Console;fontSize=13;" vertex="1" parent="Uq6jBA9CxELSbBsubBTR-68">
          <mxGeometry x="353" width="177" height="40" as="geometry" />
        </mxCell>
        <mxCell id="Uq6jBA9CxELSbBsubBTR-72" style="shape=partialRectangle;html=1;whiteSpace=wrap;collapsible=0;dropTarget=0;pointerEvents=0;fillColor=none;top=0;left=0;bottom=0;right=0;points=[[0,0.5],[1,0.5]];portConstraint=eastwest;" vertex="1" parent="Uq6jBA9CxELSbBsubBTR-55">
          <mxGeometry y="190" width="530" height="50" as="geometry" />
        </mxCell>
        <mxCell id="Uq6jBA9CxELSbBsubBTR-73" value="Document DB&lt;br&gt;(df-docdb-tcp)" style="shape=partialRectangle;html=1;whiteSpace=wrap;connectable=0;fillColor=none;top=0;left=0;bottom=0;right=0;overflow=hidden;fontFamily=Lucida Console;" vertex="1" parent="Uq6jBA9CxELSbBsubBTR-72">
          <mxGeometry width="177" height="50" as="geometry" />
        </mxCell>
        <mxCell id="Uq6jBA9CxELSbBsubBTR-74" value="&lt;font style=&quot;font-size: 12px&quot;&gt;TCP PORT 27017&lt;br&gt;df-ec2-docdb&lt;br&gt;df-ec2-ssh&lt;/font&gt;" style="shape=partialRectangle;html=1;whiteSpace=wrap;connectable=0;fillColor=none;top=0;left=0;bottom=0;right=0;overflow=hidden;fontFamily=Lucida Console;fontSize=13;" vertex="1" parent="Uq6jBA9CxELSbBsubBTR-72">
          <mxGeometry x="177" width="176" height="50" as="geometry" />
        </mxCell>
        <mxCell id="Uq6jBA9CxELSbBsubBTR-75" value="-" style="shape=partialRectangle;html=1;whiteSpace=wrap;connectable=0;fillColor=none;top=0;left=0;bottom=0;right=0;overflow=hidden;fontFamily=Lucida Console;fontSize=13;" vertex="1" parent="Uq6jBA9CxELSbBsubBTR-72">
          <mxGeometry x="353" width="177" height="50" as="geometry" />
        </mxCell>
        <mxCell id="Uq6jBA9CxELSbBsubBTR-76" value="&lt;font style=&quot;font-size: 14px&quot;&gt;Route Tables - Routes&lt;/font&gt;" style="shape=table;html=1;whiteSpace=wrap;startSize=40;container=1;collapsible=0;childLayout=tableLayout;fontStyle=1;align=center;fontFamily=Lucida Console;fontSize=13;" vertex="1" parent="1">
          <mxGeometry x="560" y="60" width="353" height="150.00000000000023" as="geometry" />
        </mxCell>
        <mxCell id="Uq6jBA9CxELSbBsubBTR-77" value="" style="shape=partialRectangle;html=1;whiteSpace=wrap;collapsible=0;dropTarget=0;pointerEvents=0;fillColor=none;top=0;left=0;bottom=0;right=0;points=[[0,0.5],[1,0.5]];portConstraint=eastwest;" vertex="1" parent="Uq6jBA9CxELSbBsubBTR-76">
          <mxGeometry y="40" width="353" height="30" as="geometry" />
        </mxCell>
        <mxCell id="Uq6jBA9CxELSbBsubBTR-78" value="Destination" style="shape=partialRectangle;html=1;whiteSpace=wrap;connectable=0;fillColor=none;top=0;left=0;bottom=0;right=0;overflow=hidden;fontFamily=Lucida Console;fontSize=13;" vertex="1" parent="Uq6jBA9CxELSbBsubBTR-77">
          <mxGeometry width="177" height="30" as="geometry" />
        </mxCell>
        <mxCell id="Uq6jBA9CxELSbBsubBTR-79" value="Target" style="shape=partialRectangle;html=1;whiteSpace=wrap;connectable=0;fillColor=none;top=0;left=0;bottom=0;right=0;overflow=hidden;fontFamily=Lucida Console;fontSize=13;" vertex="1" parent="Uq6jBA9CxELSbBsubBTR-77">
          <mxGeometry x="177" width="176" height="30" as="geometry" />
        </mxCell>
        <mxCell id="Uq6jBA9CxELSbBsubBTR-81" value="" style="shape=partialRectangle;html=1;whiteSpace=wrap;collapsible=0;dropTarget=0;pointerEvents=0;fillColor=none;top=0;left=0;bottom=0;right=0;points=[[0,0.5],[1,0.5]];portConstraint=eastwest;" vertex="1" parent="Uq6jBA9CxELSbBsubBTR-76">
          <mxGeometry y="70" width="353" height="40" as="geometry" />
        </mxCell>
        <mxCell id="Uq6jBA9CxELSbBsubBTR-82" value="&lt;font style=&quot;font-size: 12px&quot;&gt;172.31.0.0/16&lt;/font&gt;" style="shape=partialRectangle;html=1;whiteSpace=wrap;connectable=0;fillColor=none;top=0;left=0;bottom=0;right=0;overflow=hidden;fontFamily=Lucida Console;fontSize=13;" vertex="1" parent="Uq6jBA9CxELSbBsubBTR-81">
          <mxGeometry width="177" height="40" as="geometry" />
        </mxCell>
        <mxCell id="Uq6jBA9CxELSbBsubBTR-83" value="&lt;font style=&quot;font-size: 12px&quot;&gt;local&lt;/font&gt;" style="shape=partialRectangle;html=1;whiteSpace=wrap;connectable=0;fillColor=none;top=0;left=0;bottom=0;right=0;overflow=hidden;fontFamily=Lucida Console;fontSize=13;" vertex="1" parent="Uq6jBA9CxELSbBsubBTR-81">
          <mxGeometry x="177" width="176" height="40" as="geometry" />
        </mxCell>
        <mxCell id="Uq6jBA9CxELSbBsubBTR-97" style="shape=partialRectangle;html=1;whiteSpace=wrap;collapsible=0;dropTarget=0;pointerEvents=0;fillColor=none;top=0;left=0;bottom=0;right=0;points=[[0,0.5],[1,0.5]];portConstraint=eastwest;" vertex="1" parent="Uq6jBA9CxELSbBsubBTR-76">
          <mxGeometry y="110" width="353" height="40" as="geometry" />
        </mxCell>
        <mxCell id="Uq6jBA9CxELSbBsubBTR-98" value="&lt;font style=&quot;font-size: 12px&quot;&gt;0.0.0.0/0&lt;/font&gt;" style="shape=partialRectangle;html=1;whiteSpace=wrap;connectable=0;fillColor=none;top=0;left=0;bottom=0;right=0;overflow=hidden;fontFamily=Lucida Console;fontSize=13;" vertex="1" parent="Uq6jBA9CxELSbBsubBTR-97">
          <mxGeometry width="177" height="40" as="geometry" />
        </mxCell>
        <mxCell id="Uq6jBA9CxELSbBsubBTR-99" value="&lt;font style=&quot;font-size: 12px&quot;&gt;NAT Gateway ID&lt;/font&gt;" style="shape=partialRectangle;html=1;whiteSpace=wrap;connectable=0;fillColor=none;top=0;left=0;bottom=0;right=0;overflow=hidden;fontFamily=Lucida Console;fontSize=13;" vertex="1" parent="Uq6jBA9CxELSbBsubBTR-97">
          <mxGeometry x="177" width="176" height="40" as="geometry" />
        </mxCell>
        <mxCell id="Uq6jBA9CxELSbBsubBTR-101" value="&lt;font style=&quot;font-size: 14px&quot;&gt;Route Tables - Subnets&lt;/font&gt;" style="shape=table;html=1;whiteSpace=wrap;startSize=40;container=1;collapsible=0;childLayout=tableLayout;fontStyle=1;align=center;fontFamily=Lucida Console;fontSize=13;" vertex="1" parent="1">
          <mxGeometry x="942" y="60" width="353" height="150.00000000000023" as="geometry" />
        </mxCell>
        <mxCell id="Uq6jBA9CxELSbBsubBTR-102" value="" style="shape=partialRectangle;html=1;whiteSpace=wrap;collapsible=0;dropTarget=0;pointerEvents=0;fillColor=none;top=0;left=0;bottom=0;right=0;points=[[0,0.5],[1,0.5]];portConstraint=eastwest;" vertex="1" parent="Uq6jBA9CxELSbBsubBTR-101">
          <mxGeometry y="40" width="353" height="30" as="geometry" />
        </mxCell>
        <mxCell id="Uq6jBA9CxELSbBsubBTR-103" value="Name" style="shape=partialRectangle;html=1;whiteSpace=wrap;connectable=0;fillColor=none;top=0;left=0;bottom=0;right=0;overflow=hidden;fontFamily=Lucida Console;fontSize=13;" vertex="1" parent="Uq6jBA9CxELSbBsubBTR-102">
          <mxGeometry width="177" height="30" as="geometry" />
        </mxCell>
        <mxCell id="Uq6jBA9CxELSbBsubBTR-104" value="Subnet Association" style="shape=partialRectangle;html=1;whiteSpace=wrap;connectable=0;fillColor=none;top=0;left=0;bottom=0;right=0;overflow=hidden;fontFamily=Lucida Console;fontSize=13;" vertex="1" parent="Uq6jBA9CxELSbBsubBTR-102">
          <mxGeometry x="177" width="176" height="30" as="geometry" />
        </mxCell>
        <mxCell id="Uq6jBA9CxELSbBsubBTR-105" value="" style="shape=partialRectangle;html=1;whiteSpace=wrap;collapsible=0;dropTarget=0;pointerEvents=0;fillColor=none;top=0;left=0;bottom=0;right=0;points=[[0,0.5],[1,0.5]];portConstraint=eastwest;" vertex="1" parent="Uq6jBA9CxELSbBsubBTR-101">
          <mxGeometry y="70" width="353" height="40" as="geometry" />
        </mxCell>
        <mxCell id="Uq6jBA9CxELSbBsubBTR-106" value="&lt;font style=&quot;font-size: 12px&quot;&gt;df-route-table-1d&lt;/font&gt;" style="shape=partialRectangle;html=1;whiteSpace=wrap;connectable=0;fillColor=none;top=0;left=0;bottom=0;right=0;overflow=hidden;fontFamily=Lucida Console;fontSize=13;" vertex="1" parent="Uq6jBA9CxELSbBsubBTR-105">
          <mxGeometry width="177" height="40" as="geometry" />
        </mxCell>
        <mxCell id="Uq6jBA9CxELSbBsubBTR-107" value="&lt;font style=&quot;font-size: 12px&quot;&gt;df-subnet-private-eb-1d&lt;/font&gt;" style="shape=partialRectangle;html=1;whiteSpace=wrap;connectable=0;fillColor=none;top=0;left=0;bottom=0;right=0;overflow=hidden;fontFamily=Lucida Console;fontSize=13;" vertex="1" parent="Uq6jBA9CxELSbBsubBTR-105">
          <mxGeometry x="177" width="176" height="40" as="geometry" />
        </mxCell>
        <mxCell id="Uq6jBA9CxELSbBsubBTR-108" style="shape=partialRectangle;html=1;whiteSpace=wrap;collapsible=0;dropTarget=0;pointerEvents=0;fillColor=none;top=0;left=0;bottom=0;right=0;points=[[0,0.5],[1,0.5]];portConstraint=eastwest;" vertex="1" parent="Uq6jBA9CxELSbBsubBTR-101">
          <mxGeometry y="110" width="353" height="40" as="geometry" />
        </mxCell>
        <mxCell id="Uq6jBA9CxELSbBsubBTR-109" value="&lt;font style=&quot;font-size: 12px&quot;&gt;df-route-table-1f&lt;/font&gt;" style="shape=partialRectangle;html=1;whiteSpace=wrap;connectable=0;fillColor=none;top=0;left=0;bottom=0;right=0;overflow=hidden;fontFamily=Lucida Console;fontSize=13;" vertex="1" parent="Uq6jBA9CxELSbBsubBTR-108">
          <mxGeometry width="177" height="40" as="geometry" />
        </mxCell>
        <mxCell id="Uq6jBA9CxELSbBsubBTR-110" value="&lt;span style=&quot;font-size: 12px&quot;&gt;df-subnet-private-eb-1f&lt;/span&gt;" style="shape=partialRectangle;html=1;whiteSpace=wrap;connectable=0;fillColor=none;top=0;left=0;bottom=0;right=0;overflow=hidden;fontFamily=Lucida Console;fontSize=13;" vertex="1" parent="Uq6jBA9CxELSbBsubBTR-108">
          <mxGeometry x="177" width="176" height="40" as="geometry" />
        </mxCell>
      </root>
    </mxGraphModel>
  </diagram>
</mxfile>
